# xmcd
#
# Track frame offsets: 
#        150
#        13652
#        29616
#        49381
#        71649
#        88777
#        104031
#        122345
#        136884
#        152881
#        165363
#        182101
#        195900
#        208309
#        220345
#        236400
#        248253
#        267558
#        301333
#        319364
#
# Disc length: 4396 seconds
#
# Revision: 0
# Processed by: cddbd v1.5.2PL0 Copyright (c) Steve Scherf et al.
# Submitted via: ExactAudioCopy v1.1
#
DISCID=21112a14
DTITLE=Various Artist - Sporza Tour - Een Ronde Langs 40 Franse Hits - CD 2
DYEAR=2014
DGENRE=Pop
TTITLE0=Plastic Bertrand - Ça Plane Pour Moi
TTITLE1=Indila - Dernière Danse
TTITLE2=Claude François - Alexandrie Alexandra
TTITLE3=Arno - Les Filles Du Bord De Mer
TTITLE4=Caroline Loeb - C'Est La Ouate
TTITLE5=Michel Delpech - Pour Un Flirt
TTITLE6=Thomas Fersen - Les Papillons
TTITLE7=Bourvil - À Bicyclette
TTITLE8=Lio - Amoureux Solitaires
TTITLE9=Kate and Anna Mcgarrigle - Complainte Pour Ste-Catherine
TTITLE10=Ben L'Oncle Soul - Soulman
TTITLE11=Lou And The Hollywood Bananas - Kingston, Kingston
TTITLE12=Sheila - Pendant Les Vacances
TTITLE13=Thomas Dutronc - Comme Un Manouche Sans Guitare
TTITLE14=Grace Jones - La Vie En Rose
TTITLE15=Joe Dassin - Les Champs-Élysées
TTITLE16=Alliance Ethnik - Respect
TTITLE17=Dalida - Gigi L'Amoroso (Gigi L'Amour)
TTITLE18=Philippe Cataldo - Les Divas Du Dancing
TTITLE19=Vaya Con Dios - Johnny
EXTD=
EXTT0=
EXTT1=
EXTT2=
EXTT3=
EXTT4=
EXTT5=
EXTT6=
EXTT7=
EXTT8=
EXTT9=
EXTT10=
EXTT11=
EXTT12=
EXTT13=
EXTT14=
EXTT15=
EXTT16=
EXTT17=
EXTT18=
EXTT19=
PLAYORDER=
